 <svg
          viewBox="-50 00 1500 367"
          fill="none"
          xmlns="http://www.w3.org/2000/svg"
        >
          <path
            d="M279.932 80.2812L184.289 174.325C181.178 177.383 181.178 182.735 184.289 185.794C187.399 188.852 192.842 188.852 195.953 185.794L291.596 91.75L320.367 95.5729L373.243 43.5812L334.364 38.2292L328.921 0L275.267 52.7563L279.932 80.2812Z"
            fill="url(#paint0_linear_112_1096)"
          />
          <path
            d="M326.588 110.865C338.252 132.273 345.25 156.74 345.25 183.5C345.25 269.133 274.489 338.71 187.399 338.71C99.5315 338.71 28.7708 269.133 28.7708 183.5C28.7708 97.8667 99.5315 28.2896 186.622 28.2896C213.06 28.2896 237.943 34.4063 260.493 45.875L281.488 25.2313C253.494 9.175 220.836 0 186.622 0C83.9797 0 0 82.575 0 183.5C0 284.425 83.9797 367 186.622 367C289.264 367 373.243 284.425 373.243 183.5C373.243 149.858 363.912 117.746 347.583 90.2208L326.588 110.865Z"
            fill="url(#paint1_linear_112_1096)"
          />
          <path
            d="M259.715 78.7521C238.72 64.225 213.837 56.5792 186.622 56.5792C115.083 56.5792 57.5417 113.158 57.5417 183.5C57.5417 253.842 115.083 310.421 186.622 310.421C258.16 310.421 315.702 253.842 315.702 183.5C315.702 156.74 307.148 132.273 293.152 111.629L272.157 132.273C281.488 147.565 286.931 165.15 286.931 183.5C286.931 237.785 241.831 282.131 186.622 282.131C131.413 282.131 86.3126 237.785 86.3126 183.5C86.3126 129.215 131.413 84.8687 186.622 84.8687C206.061 84.8687 223.946 90.2208 238.72 99.3958L259.715 78.7521Z"
            fill="url(#paint2_linear_112_1096)"
          />
          <path
            d="M186.622 141.448C189.732 141.448 192.842 141.448 195.175 142.212L217.725 120.04C208.394 115.452 197.508 113.158 186.622 113.158C146.964 113.158 115.083 144.506 115.083 183.5C115.083 222.494 146.964 253.842 186.622 253.842C226.279 253.842 258.16 222.494 258.16 183.5C258.16 172.796 255.827 162.092 251.162 152.917L228.611 175.09C229.389 178.148 229.389 180.442 229.389 183.5C229.389 207.202 209.949 225.552 186.622 225.552C162.516 225.552 143.854 206.437 143.854 183.5C143.854 159.798 162.516 141.448 186.622 141.448Z"
            fill="url(#paint3_linear_112_1096)"
          />
          <path
            d="M496.149 66.0842H500.951L473.669 216.156H468.867L496.149 66.0842ZM489.177 66.0842H493.958L466.656 216.156H461.875L489.177 66.0842ZM482.167 66.0842H486.968L459.686 216.156H454.885L482.167 66.0842ZM475.194 66.0842H479.975L452.693 216.156H447.892L475.194 66.0842ZM605.179 66.0842L605.179 66.124H610.261L637.543 216.196H632.742L615.746 122.779L575.304 216.196H570.181L614.239 114.443L613.536 110.61L567.812 216.196H562.689L612.01 102.273L611.306 98.4411L560.317 216.196H555.194L609.778 90.1097L609.095 86.2973L552.841 216.201H547.718L607.564 77.9445L606.861 74.112L545.344 216.185H536.243L497.309 124.685L480.674 216.185H475.873L503.155 66.1135H507.956L507.936 66.2123L555.711 180.35L605.179 66.0842ZM540.768 214.831L541.793 212.441L499.524 112.369L498.821 116.24L540.768 214.831ZM544.383 206.476L545.568 203.75L501.75 100.043L501.047 103.915L544.383 206.476ZM548.161 197.764L549.346 195.038L504.002 87.7129L503.299 91.5847L548.161 197.764ZM551.938 189.052L553.104 186.346L506.375 74.6992L505.551 79.2623L551.938 189.052ZM612.369 66.0842H617.171L644.453 216.156H639.671L612.369 66.0842ZM619.363 66.0842H624.164L651.446 216.156H646.645L619.363 66.0842ZM626.351 66.0842H631.132L658.434 216.156H653.632L626.351 66.0842ZM638.121 66.0842L665.423 216.156H660.621L633.339 66.0842H638.121ZM686.971 216.155H682.25V66.0831H686.971V216.155ZM694.264 216.155H689.543V66.0831H694.264V216.155ZM701.537 216.155H696.816V66.0831H701.537V216.155ZM708.829 216.155H704.108V66.0831H708.829V216.155ZM716.101 216.155H711.38V66.0831H716.101V216.155ZM815.079 88.2492C829.504 102.413 837.438 121.259 837.419 141.308C837.419 180.776 805.898 213.509 766.32 216.156H759.63V66.3043H764.351V66.3636C783.517 67.1341 801.458 74.8568 815.079 88.2492ZM764.353 97.987V184.607C787.134 182.968 805.277 164.024 805.277 141.306C805.277 118.568 787.135 99.6275 764.353 97.987ZM764.353 189.25V191.363C790.931 189.724 812.147 167.737 812.147 141.307C812.147 114.857 790.912 92.8905 764.353 91.2306V93.3443C789.726 94.9839 809.998 116.041 809.998 141.308C809.998 166.553 789.727 187.609 764.353 189.25ZM764.353 196.006V198.12C794.688 196.46 818.996 171.453 818.996 141.309C818.996 111.164 794.689 86.1779 764.353 84.4977V86.5917C793.524 88.251 816.868 112.331 816.868 141.309C816.868 170.287 793.504 194.344 764.353 196.006ZM764.353 202.762V204.856C798.485 203.197 825.87 175.185 825.87 141.308C825.87 107.45 798.487 79.4188 764.353 77.7385V79.8522C797.299 81.5312 823.719 108.615 823.719 141.307C823.719 173.999 797.299 201.103 764.353 202.762ZM764.353 211.611C802.263 209.932 832.716 178.898 832.716 141.305C832.716 122.499 825.263 104.819 811.742 91.5253C799.005 78.9816 782.25 71.7512 764.349 70.9809V73.0946C801.054 74.7736 830.567 104.898 830.567 141.302C830.567 177.707 801.075 207.813 764.349 209.493V211.607L764.353 211.611ZM757.683 216.155H752.962V66.3036H757.683V216.155ZM751.012 216.155H746.291V66.3036H751.012V216.155ZM744.343 216.155H739.622V66.3036H744.343V216.155ZM737.673 216.155H732.952V66.3036H737.673V216.155ZM893.712 66.0842H898.514L871.232 216.156H866.43L893.712 66.0842ZM886.739 66.0842H891.521L864.219 216.156H859.438L886.739 66.0842ZM879.729 66.0842H884.531L857.249 216.156H852.447L879.729 66.0842ZM872.757 66.0842H877.538L850.256 216.156H845.455L872.757 66.0842ZM1002.74 66.0842L1002.74 66.124H1007.82L1035.11 216.196H1030.3L1013.31 122.779L972.867 216.196H967.744L1011.8 114.443L1011.1 110.61L965.375 216.196H960.252L1009.57 102.273L1008.87 98.4411L957.88 216.196H952.757L1007.34 90.1097L1006.66 86.2973L950.404 216.201H945.281L1005.13 77.9445L1004.42 74.112L942.907 216.185H933.806L894.871 124.685L878.237 216.185H873.435L900.717 66.1135H905.519L905.499 66.2123L953.273 180.35L1002.74 66.0842ZM938.331 214.831L939.356 212.441L897.086 112.369L896.383 116.24L938.331 214.831ZM941.945 206.476L943.131 203.75L899.313 100.043L898.61 103.915L941.945 206.476ZM945.723 197.764L946.909 195.038L901.565 87.7129L900.861 91.5847L945.723 197.764ZM949.501 189.052L950.666 186.346L903.938 74.6992L903.114 79.2623L949.501 189.052ZM1009.93 66.0842H1014.73L1042.02 216.156H1037.23L1009.93 66.0842ZM1016.93 66.0842H1021.73L1049.01 216.156H1044.21L1016.93 66.0842ZM1023.91 66.0842H1028.7L1056 216.156H1051.2L1023.91 66.0842ZM1035.68 66.0842L1062.99 216.156H1058.18L1030.9 66.0842H1035.68ZM1084.53 216.174H1079.81V66.0652H1084.53V216.174ZM1091.81 216.174H1087.09V66.0652H1091.81V216.174ZM1099.1 216.174H1094.38V66.0652H1099.1V216.174ZM1106.37 216.174H1101.65V66.0652H1106.37V216.174ZM1169.03 70.6847L1113.66 70.6849V73.2134H1169.03V77.8555H1113.66V80.3643H1169.03V85.0064H1113.66V87.5349H1169.03V92.1771H1113.66V94.6858H1169.03V99.328H1113.66V128.169H1153.94V132.811H1113.66V135.339H1153.94V139.962H1113.66V142.49H1153.94V147.133H1113.66V149.641H1153.94V154.283H1113.66V156.812H1153.94V161.454H1113.66V182.887H1169.03V187.53H1113.66V190.038H1169.03V194.68H1113.66V197.209H1169.03V201.831H1113.66V204.36H1169.03V209.002H1113.66V211.511H1169.03V216.153H1108.94V66.0599H1169.03V70.6847ZM1190.49 216.174H1185.76V66.0652H1190.49V216.174ZM1197.76 216.174H1193.04V66.0652H1197.76V216.174ZM1205.05 216.174H1200.33V66.0652H1205.05V216.174ZM1212.32 216.174H1207.6V66.0652H1212.32V216.174ZM1274.98 70.6847L1219.61 70.6849V73.2134H1274.98V77.8555H1219.61V80.3643H1274.98V85.0064H1219.61V87.5349H1274.98V92.1771H1219.61V94.6858H1274.98V99.328H1219.61V128.169H1259.89V132.811H1219.61V135.339H1259.89V139.962H1219.61V142.49H1259.89V147.133H1219.61V149.641H1259.89V154.283H1219.61V156.812H1259.89V161.454H1219.61V182.887H1274.98V187.53H1219.61V190.038H1274.98V194.68H1219.61V197.209H1274.98V201.831H1219.61V204.36H1274.98V209.002H1219.61V211.511H1274.98V216.153H1214.9V66.0599H1274.98V70.6847ZM1380.98 71.4362H1286.25V66.7941H1380.98V71.4362ZM1380.98 78.6081H1286.25V73.9659H1380.98V78.6081ZM1380.98 85.7584H1286.25V81.1163H1380.98V85.7584ZM1380.98 92.9302H1286.25V88.2881H1380.98V92.9302ZM1286.26 100.081V95.4384H1381V100.081H1350.54V216.156H1345.84V100.081H1343.27V216.156H1338.55V100.081H1336V216.156H1331.28V100.081H1328.71V216.156H1323.98V100.081H1321.43V216.156H1316.71V100.081H1286.26Z"
            fill="#111111"
          />
          <path
            d="M554.648 304.47L541.203 253.931H552.301L562.332 292.196L573.821 253.931H582.82L594.239 292.196L604.376 253.931H615.439L601.993 304.47H588.263L578.303 273.236L568.379 304.47H554.648ZM653.464 263.164H634.398V274.636H651.295V283.764H634.398V295.202H653.464V304.47H623.656V253.932H653.464V263.164ZM713.188 253.931V263.164H700.987V304.47H690.422V263.164H678.151V253.931H713.188ZM753.667 253.931H764.339V304.47H753.667V283.694H731.934V304.47H721.262V253.931H731.934V274.566H753.667V253.931ZM777.641 304.47V253.931H788.312V304.47H777.641ZM836.689 253.931H847.324V304.47H834.981L812.216 268.339V304.47H801.58V253.931H813.781L836.689 289.85V253.931ZM891.041 304.47L875.069 282.994H871.299V304.47H860.628V253.931H871.299V273.797H874.927L891.04 253.931H904.059L884.139 278.099L904.664 304.471L891.041 304.47ZM969.793 253.931L952.897 280.267V304.471H942.19V280.512L925.187 253.93H936.996L947.49 271.139L958.019 253.93L969.793 253.931ZM999.78 305.169C984.662 305.169 973.493 295.026 973.493 279.182C973.493 263.303 984.662 253.23 999.78 253.23C1014.86 253.23 1026.03 263.303 1026.03 279.182C1026.03 295.026 1014.86 305.169 999.78 305.169ZM999.78 295.551C1008.64 295.551 1015.43 289.43 1015.43 279.182C1015.43 268.969 1008.64 262.884 999.78 262.884C990.922 262.884 984.128 268.969 984.128 279.182C984.128 289.43 990.922 295.551 999.78 295.551ZM1054.88 305.169C1043.6 305.169 1034.78 299.503 1034.78 286.772V253.93H1045.45V285.338C1045.45 293.032 1049.61 295.9 1054.88 295.9C1060.18 295.9 1064.38 292.997 1064.38 285.338V253.93H1075.05V286.772C1075.05 299.503 1066.19 305.169 1054.88 305.169ZM1165.11 304.47H1154.48L1151.1 266.38L1138.08 304.47H1131.18L1118.16 266.38L1114.74 304.47H1104.07L1108.38 253.931H1123.6L1134.56 285.654L1145.65 253.931H1160.88L1165.11 304.47ZM1206.09 263.164H1187.02V274.636H1203.92V283.764H1187.02V295.202H1206.09V304.47H1176.28V253.932H1206.09V263.164ZM1246.89 263.164H1227.82V274.636H1244.72V283.764H1227.82V295.202H1246.89V304.47H1217.08V253.932H1246.89V263.164ZM1287.69 253.931V263.164H1275.49V304.47H1264.92V263.164H1252.65V253.931H1287.69Z"
            fill="#111111"
          />
          <defs>
            <linearGradient
              id="paint0_linear_112_1096"
              x1="181.956"
              y1="0"
              x2="373.243"
              y2="0"
              gradientUnits="userSpaceOnUse"
            >
              <stop stop-color="#834F2A" />
              <stop offset="0.5" stop-color="#DBA173" />
              <stop offset="1" stop-color="#834F2A" />
            </linearGradient>
            <linearGradient
              id="paint1_linear_112_1096"
              x1="0"
              y1="0"
              x2="373.243"
              y2="0"
              gradientUnits="userSpaceOnUse"
            >
              <stop stop-color="#834F2A" />
              <stop offset="0.5" stop-color="#DBA173" />
              <stop offset="1" stop-color="#834F2A" />
            </linearGradient>
            <linearGradient
              id="paint2_linear_112_1096"
              x1="57.5417"
              y1="56.5792"
              x2="315.702"
              y2="56.5792"
              gradientUnits="userSpaceOnUse"
            >
              <stop stop-color="#834F2A" />
              <stop offset="0.5" stop-color="#DBA173" />
              <stop offset="1" stop-color="#834F2A" />
            </linearGradient>
            <linearGradient
              id="paint3_linear_112_1096"
              x1="115.083"
              y1="113.158"
              x2="258.16"
              y2="113.158"
              gradientUnits="userSpaceOnUse"
            >
              <stop stop-color="#834F2A" />
              <stop offset="0.5" stop-color="#DBA173" />
              <stop offset="1" stop-color="#834F2A" />
            </linearGradient>
          </defs>
        </svg>
